# xmcd
#
# Track frame offsets:
#	150
#	13427
#	28314
#	42952
#	57961
#	72239
#	85747
#	100059
#	115344
#	128948
#
# Disc length: 1918 seconds
#
# Revision: 0
# Processed by: cddbd v1.5.2PL0 Copyright (c) Steve Scherf et al.
# Submitted via: EasyCDDAExtractor 16.0.6.1
#
DISCID=8a077c0a
DTITLE=Συλλογικός δίσκος - Λαϊκό τραγούδι 1954-1967, 1958-3
DYEAR=2008
DGENRE=Λαϊκή
TTITLE0=Μπιθικώτσης Γρηγόρης - Είμαι λιγάκι ζόρικος [Θε'οδωρος Δερβενιώτης-Ευτ
TTITLE0=Παπαγιαννοπούλου]
TTITLE1=Καζαντζίδης Στέλιος - Πάρε το δάκρυ μου βοριά [Βασίλης Τσιτσάνης-Δημήτ
TTITLE1=ρης Γκούτης]
TTITLE2=Δούκισσα - Αχ, βρε φτώχεια κακομοίρα [Απόστολος Καλδάρας-Ευτ. Παπαγιαν
TTITLE2=νοπούλου]
TTITLE3=Γαβαλάς Πάνος - Κάνε μου το κέφι [Νίκος Καρώνης-Αιμίλιος Σαββίδης]
TTITLE4=Λίντα Μαίρη-Χιώτης Μανώλης - Ένας βλάκας και μισός [Μανώλης Χιώτης]
TTITLE5=Καζαντζίδης Στέλιος-Μαρινέλλα - Αν μ' αγαπούσες, όσο σ' αγαπώ [Γιώργος
TTITLE5=Μητσάκης]
TTITLE6=Γκρέϋ Καίτη-Ρουμελιώτης Δημήτρης - Ντάλε, ντάλε [Γιώργος Μητσάκης]
TTITLE7=Αγγελόπουλος Μανώλης-Λύδια Γιώτα - Μιά κόρη άρρωστη βαριά [Στράτος Αττ
TTITLE7=αλίδης]
TTITLE8=Λύδια Γιώτα - Με διώξαν τα παιδιά μου [Μπάμπης Μπακάλης]
TTITLE9=Καζαντζίδης Στέλιος - Πώς τα βαστάει ο Θεός [Θεόδωρος Δερβενιώτης-Ευτ.
TTITLE9=Παπαγιαννοπούλου]
EXTD=
EXTT0=
EXTT1=
EXTT2=
EXTT3=
EXTT4=
EXTT5=
EXTT6=
EXTT7=
EXTT8=
EXTT9=
PLAYORDER=
